<svg width="38" height="42" viewBox="0 0 38 42" fill="none" xmlns="http://www.w3.org/2000/svg">
<path fill-rule="evenodd" clip-rule="evenodd" d="M9.44445 0C8.89217 0 8.44445 0.447715 8.44445 1V5H5C2.23858 5 0 7.23858 0 10V19.4999C0.0799553 19.4998 0.16108 19.519 0.236464 19.5594L0.236723 19.5596L0.237999 19.5603L0.24358 19.5633L0.266714 19.5756C0.287402 19.5865 0.318545 19.603 0.359699 19.6246C0.44201 19.6678 0.564358 19.7314 0.723196 19.8126C1.0409 19.975 1.50444 20.2076 2.0855 20.4869C3.24797 21.0456 4.87885 21.7907 6.75175 22.5354C8.54545 23.2486 10.5464 23.9555 12.5621 24.5H12.6667V24.5281C14.8454 25.1104 17.0375 25.5 19 25.5C20.9625 25.5 23.1546 25.1104 25.3333 24.5281V24.5H25.4379C27.4536 23.9555 29.4546 23.2486 31.2483 22.5354C33.1212 21.7907 34.752 21.0456 35.9145 20.4869C36.4956 20.2076 36.9591 19.975 37.2768 19.8126C37.4356 19.7314 37.558 19.6678 37.6403 19.6246C37.6815 19.603 37.7126 19.5865 37.7333 19.5756L37.7564 19.5633L37.762 19.5603L37.7633 19.5596L37.7635 19.5594C37.8389 19.519 37.92 19.4998 38 19.4999V10C38 7.23858 35.7614 5 33 5H29.5555V1C29.5555 0.447715 29.1078 0 28.5555 0H27.4444V5H10.5556V2H27.4444V0H10.5556H10.5555H9.44445ZM37.732 20.703C37.837 20.6493 37.9267 20.603 38 20.5649V37C38 39.7614 35.7614 42 33 42H5C2.23858 42 0 39.7614 0 37V20.5649C0.0733062 20.603 0.162972 20.6493 0.26803 20.703C0.592216 20.8687 1.06311 21.1049 1.65226 21.3881C2.83021 21.9544 4.48283 22.7093 6.38226 23.4646C7.36222 23.8543 8.41223 24.2458 9.49999 24.6121V25L9.5 27.5H12.6667V25.5623C14.8269 26.1243 17.0132 26.5 19 26.5C20.9868 26.5 23.1731 26.1243 25.3333 25.5623V27.5H28.5V25L28.5 24.6121C29.5878 24.2458 30.6378 23.8543 31.6177 23.4646C33.5172 22.7093 35.1698 21.9544 36.3477 21.3881C36.9369 21.1049 37.4078 20.8687 37.732 20.703Z" fill="#931818"/>
</svg>
