<svg width="26" height="28" viewBox="0 0 26 28" fill="none" xmlns="http://www.w3.org/2000/svg">
<path fill-rule="evenodd" clip-rule="evenodd" d="M4.56096 25.4533C4.56309 25.4551 4.56523 25.4569 4.56737 25.4587C6.08087 26.7339 11.3836 22.9299 16.4114 16.9623C21.4392 10.9947 24.2881 5.12327 22.7746 3.84812L22.7746 3.84811L22.7746 3.84808L18.972 0.644304C18.5496 0.288457 17.9188 0.342379 17.5629 0.764742L15.817 2.83699C15.4612 3.25936 15.5151 3.89022 15.9374 4.24607L17.6975 5.72891L17.6728 5.74758C17.7585 5.79369 17.8388 5.84797 17.9131 5.91062C19.4266 7.18576 17.9364 11.4446 14.5845 15.423C11.2339 19.3999 7.29154 21.5911 5.77673 20.3192C5.77615 20.3187 5.77556 20.3182 5.77497 20.3177C5.77438 20.3172 5.7738 20.3167 5.77321 20.3162C5.69955 20.2539 5.63302 20.1846 5.5735 20.1085C5.56876 20.1177 5.56402 20.1268 5.55929 20.136L3.79929 18.6531C3.37692 18.2973 2.74606 18.3512 2.39021 18.7736L0.644308 20.8458C0.288461 21.2682 0.342383 21.8991 0.764746 22.2549L4.56096 25.4533Z" fill="#FEFEFE"/>
</svg>
